<svg width="800" height="148" viewBox="0 0 800 148" fill="none" xmlns="http://www.w3.org/2000/svg">
<rect width="800" height="148" rx="10" fill="#EBAA01"/>
<path fill-rule="evenodd" clip-rule="evenodd" d="M260.434 67.7448L583.908 67.7445L583.908 64.2559L260.434 64.2562L260.434 67.7448Z" fill="black"/>
<path fill-rule="evenodd" clip-rule="evenodd" d="M260.433 72.9203L583.907 72.9203L583.907 69.4318L260.433 69.4318L260.433 72.9203Z" fill="#C11F09"/>
<path fill-rule="evenodd" clip-rule="evenodd" d="M260.434 78.0943L583.908 78.0944L583.908 74.6058L260.434 74.6058L260.434 78.0943Z" fill="#0072B2"/>
<path fill-rule="evenodd" clip-rule="evenodd" d="M260.433 83.2699L583.907 83.2699L583.907 79.7814L260.433 79.7813L260.433 83.2699Z" fill="#F0E442"/>
<path fill-rule="evenodd" clip-rule="evenodd" d="M592.583 83.2697C620.932 83.2697 643.914 60.2877 643.914 31.9381L643.914 -2.66614e-06L640.426 -3.12518e-06L640.426 31.9381C640.426 58.3611 619.006 79.7811 592.583 79.7811L480.432 79.7811L480.432 83.2696L592.583 83.2697Z" fill="#F0E442"/>
<path fill-rule="evenodd" clip-rule="evenodd" d="M592.584 78.0939C620.933 78.0939 643.915 55.1119 643.915 26.7623L643.915 -2.97464e-06L640.427 -3.43368e-06L640.427 26.7623C640.427 53.1853 619.007 74.6053 592.584 74.6053L480.433 74.6053L480.433 78.0939L592.584 78.0939Z" fill="#0072B2"/>
<path fill-rule="evenodd" clip-rule="evenodd" d="M592.582 72.92C620.932 72.92 643.914 49.938 643.914 21.5883L643.914 -3.28303e-06L640.425 -3.74207e-06L640.426 21.5884C640.426 48.0114 619.005 69.4315 592.582 69.4315L480.433 69.4315L480.433 72.92L592.582 72.92Z" fill="#C11F09"/>
<path fill-rule="evenodd" clip-rule="evenodd" d="M592.584 67.7441C620.933 67.7441 643.915 44.7621 643.915 16.4125L643.915 -3.59153e-06L640.426 -4.05057e-06L640.426 16.4125C640.427 42.8355 619.007 64.2556 592.583 64.2556L480.433 64.2557L480.433 67.7443L592.584 67.7441Z" fill="black"/>
<path fill-rule="evenodd" clip-rule="evenodd" d="M207.022 64.2557C178.672 64.2557 155.69 87.2376 155.69 115.587L155.69 147.525L159.179 147.525L159.179 115.587C159.179 89.1643 180.599 67.7443 207.022 67.7443L319.172 67.7443L319.172 64.2557L207.022 64.2557Z" fill="#F0E442"/>
<path fill-rule="evenodd" clip-rule="evenodd" d="M207.021 69.4315C178.671 69.4315 155.689 92.4134 155.689 120.763L155.689 147.525L159.178 147.525L159.178 120.763C159.178 94.3401 180.598 72.9201 207.021 72.9201L319.171 72.9201L319.171 69.4315L207.021 69.4315Z" fill="#0072B2"/>
<path fill-rule="evenodd" clip-rule="evenodd" d="M207.022 74.6053C178.672 74.6053 155.69 97.5873 155.69 125.937L155.69 147.525L159.179 147.525L159.179 125.937C159.179 99.514 180.599 78.0939 207.022 78.0939L319.172 78.0939L319.172 74.6054L207.022 74.6053Z" fill="#C11F09"/>
<path fill-rule="evenodd" clip-rule="evenodd" d="M207.021 79.7812C178.671 79.7813 155.689 102.763 155.689 131.113L155.689 147.525L159.178 147.525L159.178 131.113C159.178 104.69 180.598 83.2698 207.021 83.2698L319.171 83.2697L319.171 79.7811L207.021 79.7812Z" fill="black"/>
<g filter="url(#filter0_d_2_3)">
<path d="M340.393 26H219.446C210.046 26 202.433 33.6134 202.433 43V104.84C202.433 114.227 210.046 121.84 219.446 121.84H340.393C349.779 121.84 357.393 114.227 357.393 104.84V43C357.393 33.6134 349.779 26 340.393 26ZM294.313 27.1334C296.299 27.1334 297.899 28.7333 297.899 30.72C297.899 32.7068 296.299 34.3067 294.313 34.3067C292.326 34.3067 290.726 32.7067 290.726 30.72C290.726 28.7334 292.326 27.1334 294.313 27.1334ZM284.713 27.1334C286.699 27.1334 288.299 28.7333 288.299 30.72C288.299 32.7068 286.699 34.3067 284.713 34.3067C282.726 34.3067 281.126 32.7067 281.126 30.72C281.126 28.7334 282.726 27.1334 284.713 27.1334ZM275.113 27.1334C277.099 27.1334 278.699 28.7333 278.699 30.72C278.699 32.7068 277.099 34.3067 275.113 34.3067C273.126 34.3067 271.526 32.7067 271.526 30.72C271.526 28.7334 273.126 27.1334 275.113 27.1334ZM265.513 27.1334C267.499 27.1334 269.099 28.7333 269.099 30.72C269.099 32.7068 267.499 34.3067 265.513 34.3067C263.526 34.3067 261.926 32.7067 261.926 30.72C261.926 28.7334 263.526 27.1334 265.513 27.1334ZM219.446 114.733C213.593 114.733 208.859 110 208.859 104.16C208.859 98.3067 213.593 93.5733 219.446 93.5733C225.286 93.5733 230.019 98.3067 230.019 104.16C230.019 110 225.286 114.733 219.446 114.733ZM219.446 54.2667C213.593 54.2667 208.859 49.52 208.859 43.68C208.859 37.84 213.593 33.0933 219.446 33.0933C225.286 33.0933 230.019 37.84 230.019 43.68C230.019 49.52 225.286 54.2667 219.446 54.2667ZM236.713 121.08C234.526 121.08 232.739 119.307 232.739 117.12C232.739 114.92 234.526 113.147 236.713 113.147C238.899 113.147 240.686 114.92 240.686 117.12C240.686 119.307 238.899 121.08 236.713 121.08ZM246.313 121.08C244.126 121.08 242.339 119.307 242.339 117.12C242.339 114.92 244.126 113.147 246.313 113.147C248.499 113.147 250.286 114.92 250.286 117.12C250.286 119.307 248.499 121.08 246.313 121.08ZM255.913 121.08C253.726 121.08 251.939 119.307 251.939 117.12C251.939 114.92 253.726 113.147 255.913 113.147C258.099 113.147 259.886 114.92 259.886 117.12C259.886 119.307 258.099 121.08 255.913 121.08ZM265.513 121.08C263.326 121.08 261.539 119.307 261.539 117.12C261.539 114.92 263.326 113.147 265.513 113.147C267.699 113.147 269.486 114.92 269.486 117.12C269.486 119.307 267.699 121.08 265.513 121.08ZM275.113 121.08C272.926 121.08 271.139 119.307 271.139 117.12C271.139 114.92 272.926 113.147 275.113 113.147C277.299 113.147 279.086 114.92 279.086 117.12C279.086 119.307 277.299 121.08 275.113 121.08ZM284.713 121.08C282.526 121.08 280.739 119.307 280.739 117.12C280.739 114.92 282.526 113.147 284.713 113.147C286.899 113.147 288.686 114.92 288.686 117.12C288.686 119.307 286.899 121.08 284.713 121.08ZM294.313 121.08C292.126 121.08 290.339 119.307 290.339 117.12C290.339 114.92 292.126 113.147 294.313 113.147C296.499 113.147 298.286 114.92 298.286 117.12C298.286 119.307 296.499 121.08 294.313 121.08ZM303.913 121.08C301.726 121.08 299.939 119.307 299.939 117.12C299.939 114.92 301.726 113.147 303.913 113.147C306.099 113.147 307.886 114.92 307.886 117.12C307.886 119.307 306.099 121.08 303.913 121.08ZM313.513 121.08C311.326 121.08 309.539 119.307 309.539 117.12C309.539 114.92 311.326 113.147 313.513 113.147C315.699 113.147 317.486 114.92 317.486 117.12C317.486 119.307 315.699 121.08 313.513 121.08ZM323.113 121.08C320.926 121.08 319.139 119.307 319.139 117.12C319.139 114.92 320.926 113.147 323.113 113.147C325.299 113.147 327.086 114.92 327.086 117.12C327.086 119.307 325.299 121.08 323.113 121.08ZM340.393 114.733C334.539 114.733 329.806 110 329.806 104.16C329.806 98.3067 334.539 93.5733 340.393 93.5733C346.233 93.5733 350.966 98.3067 350.966 104.16C350.966 110 346.233 114.733 340.393 114.733ZM340.393 54.2667C334.539 54.2667 329.806 49.52 329.806 43.68C329.806 37.84 334.539 33.0933 340.393 33.0933C346.233 33.0933 350.966 37.84 350.966 43.68C350.966 49.52 346.233 54.2667 340.393 54.2667Z" fill="#057582"/>
<path d="M219.937 88.1992H213.15V91.2254H219.937V88.1992Z" fill="#929D9E"/>
<path d="M216.544 91.8893C217.746 91.8893 218.721 90.9147 218.721 89.7124C218.721 88.5101 217.746 87.5354 216.544 87.5354C215.342 87.5354 214.367 88.5101 214.367 89.7124C214.367 90.9147 215.342 91.8893 216.544 91.8893Z" fill="#EBAA01"/>
<path fill-rule="evenodd" clip-rule="evenodd" d="M323.113 113.147C320.926 113.147 319.14 114.92 319.14 117.12C319.14 119.307 320.926 121.08 323.113 121.08C325.3 121.08 327.086 119.307 327.086 117.12C327.086 114.92 325.3 113.147 323.113 113.147ZM323.113 119C322.073 119 321.22 118.16 321.22 117.12C321.22 116.067 322.073 115.227 323.113 115.227C324.153 115.227 325.006 116.067 325.006 117.12C325.006 118.16 324.153 119 323.113 119Z" fill="#B7BFBF"/>
<path fill-rule="evenodd" clip-rule="evenodd" d="M313.512 113.147C311.326 113.147 309.539 114.92 309.539 117.12C309.539 119.307 311.326 121.08 313.512 121.08C315.699 121.08 317.486 119.307 317.486 117.12C317.486 114.92 315.699 113.147 313.512 113.147ZM313.512 119C312.472 119 311.619 118.16 311.619 117.12C311.619 116.067 312.472 115.227 313.512 115.227C314.552 115.227 315.406 116.067 315.406 117.12C315.406 118.16 314.552 119 313.512 119Z" fill="#B7BFBF"/>
<path fill-rule="evenodd" clip-rule="evenodd" d="M303.913 113.147C301.726 113.147 299.939 114.92 299.939 117.12C299.939 119.307 301.726 121.08 303.913 121.08C306.099 121.08 307.886 119.307 307.886 117.12C307.886 114.92 306.099 113.147 303.913 113.147ZM303.913 119C302.873 119 302.019 118.16 302.019 117.12C302.019 116.067 302.873 115.227 303.913 115.227C304.953 115.227 305.806 116.067 305.806 117.12C305.806 118.16 304.953 119 303.913 119Z" fill="#B7BFBF"/>
<path fill-rule="evenodd" clip-rule="evenodd" d="M294.313 113.147C292.127 113.147 290.34 114.92 290.34 117.12C290.34 119.307 292.127 121.08 294.313 121.08C296.5 121.08 298.287 119.307 298.287 117.12C298.287 114.92 296.5 113.147 294.313 113.147ZM294.313 119C293.273 119 292.42 118.16 292.42 117.12C292.42 116.067 293.273 115.227 294.313 115.227C295.353 115.227 296.207 116.067 296.207 117.12C296.207 118.16 295.353 119 294.313 119Z" fill="#B7BFBF"/>
<path fill-rule="evenodd" clip-rule="evenodd" d="M284.713 113.147C282.526 113.147 280.739 114.92 280.739 117.12C280.739 119.307 282.526 121.08 284.713 121.08C286.899 121.08 288.686 119.307 288.686 117.12C288.686 114.92 286.899 113.147 284.713 113.147ZM284.713 119C283.673 119 282.819 118.16 282.819 117.12C282.819 116.067 283.673 115.227 284.713 115.227C285.753 115.227 286.606 116.067 286.606 117.12C286.606 118.16 285.753 119 284.713 119Z" fill="#B7BFBF"/>
<path fill-rule="evenodd" clip-rule="evenodd" d="M236.713 113.147C234.526 113.147 232.739 114.92 232.739 117.12C232.739 119.307 234.526 121.08 236.713 121.08C238.899 121.08 240.686 119.307 240.686 117.12C240.686 114.92 238.899 113.147 236.713 113.147ZM236.713 119C235.673 119 234.819 118.16 234.819 117.12C234.819 116.067 235.673 115.227 236.713 115.227C237.753 115.227 238.606 116.067 238.606 117.12C238.606 118.16 237.753 119 236.713 119Z" fill="#B7BFBF"/>
<path fill-rule="evenodd" clip-rule="evenodd" d="M246.313 113.147C244.127 113.147 242.34 114.92 242.34 117.12C242.34 119.307 244.127 121.08 246.313 121.08C248.5 121.08 250.287 119.307 250.287 117.12C250.287 114.92 248.5 113.147 246.313 113.147ZM246.313 119C245.273 119 244.42 118.16 244.42 117.12C244.42 116.067 245.273 115.227 246.313 115.227C247.353 115.227 248.207 116.067 248.207 117.12C248.207 118.16 247.353 119 246.313 119Z" fill="#B7BFBF"/>
<path fill-rule="evenodd" clip-rule="evenodd" d="M255.913 113.147C253.726 113.147 251.939 114.92 251.939 117.12C251.939 119.307 253.726 121.08 255.913 121.08C258.099 121.08 259.886 119.307 259.886 117.12C259.886 114.92 258.099 113.147 255.913 113.147ZM255.913 119C254.873 119 254.019 118.16 254.019 117.12C254.019 116.067 254.873 115.227 255.913 115.227C256.953 115.227 257.806 116.067 257.806 117.12C257.806 118.16 256.953 119 255.913 119Z" fill="#B7BFBF"/>
<path fill-rule="evenodd" clip-rule="evenodd" d="M265.512 113.147C263.326 113.147 261.539 114.92 261.539 117.12C261.539 119.307 263.326 121.08 265.512 121.08C267.699 121.08 269.486 119.307 269.486 117.12C269.486 114.92 267.699 113.147 265.512 113.147ZM265.512 119C264.472 119 263.619 118.16 263.619 117.12C263.619 116.067 264.472 115.227 265.512 115.227C266.552 115.227 267.406 116.067 267.406 117.12C267.406 118.16 266.552 119 265.512 119Z" fill="#B7BFBF"/>
<path fill-rule="evenodd" clip-rule="evenodd" d="M275.113 113.147C272.926 113.147 271.14 114.92 271.14 117.12C271.14 119.307 272.926 121.08 275.113 121.08C277.3 121.08 279.086 119.307 279.086 117.12C279.086 114.92 277.3 113.147 275.113 113.147ZM275.113 119C274.073 119 273.22 118.16 273.22 117.12C273.22 116.067 274.073 115.227 275.113 115.227C276.153 115.227 277.006 116.067 277.006 117.12C277.006 118.16 276.153 119 275.113 119Z" fill="#B7BFBF"/>
<path fill-rule="evenodd" clip-rule="evenodd" d="M219.446 93.5718C213.593 93.5718 208.859 98.3052 208.859 104.159C208.859 109.998 213.593 114.732 219.446 114.732C225.286 114.732 230.019 109.998 230.019 104.159C230.019 98.3052 225.286 93.5718 219.446 93.5718ZM219.446 110.198C216.099 110.198 213.393 107.492 213.393 104.159C213.393 100.812 216.099 98.1051 219.446 98.1051C222.779 98.1051 225.486 100.812 225.486 104.159C225.486 107.492 222.779 110.198 219.446 110.198Z" fill="#B7BFBF"/>
<path fill-rule="evenodd" clip-rule="evenodd" d="M219.446 33.0918C213.593 33.0918 208.859 37.8385 208.859 43.6785C208.859 49.5185 213.593 54.2651 219.446 54.2651C225.286 54.2651 230.019 49.5185 230.019 43.6785C230.019 37.8385 225.286 33.0918 219.446 33.0918ZM219.446 49.7319C216.099 49.7319 213.393 47.0251 213.393 43.6785C213.393 40.3451 216.099 37.6385 219.446 37.6385C222.779 37.6385 225.486 40.3451 225.486 43.6785C225.486 47.0251 222.779 49.7319 219.446 49.7319Z" fill="#B7BFBF"/>
<path fill-rule="evenodd" clip-rule="evenodd" d="M340.392 33.0918C334.539 33.0918 329.806 37.8385 329.806 43.6785C329.806 49.5185 334.539 54.2651 340.392 54.2651C346.232 54.2651 350.966 49.5185 350.966 43.6785C350.966 37.8385 346.232 33.0918 340.392 33.0918ZM340.392 49.7319C337.046 49.7319 334.339 47.0251 334.339 43.6785C334.339 40.3451 337.046 37.6385 340.392 37.6385C343.726 37.6385 346.432 40.3451 346.432 43.6785C346.432 47.0251 343.726 49.7319 340.392 49.7319Z" fill="#B7BFBF"/>
<path fill-rule="evenodd" clip-rule="evenodd" d="M340.392 93.5718C334.539 93.5718 329.806 98.3051 329.806 104.158C329.806 109.998 334.539 114.732 340.392 114.732C346.232 114.732 350.966 109.998 350.966 104.158C350.966 98.3051 346.232 93.5718 340.392 93.5718ZM340.392 110.198C337.046 110.198 334.339 107.492 334.339 104.158C334.339 100.812 337.046 98.1051 340.392 98.1051C343.726 98.1051 346.432 100.812 346.432 104.158C346.432 107.492 343.726 110.198 340.392 110.198Z" fill="#B7BFBF"/>
<path fill-rule="evenodd" clip-rule="evenodd" d="M265.512 27.1318C263.526 27.1318 261.926 28.7318 261.926 30.7185C261.926 32.7052 263.526 34.3052 265.512 34.3052C267.499 34.3052 269.099 32.7052 269.099 30.7185C269.099 28.7318 267.499 27.1318 265.512 27.1318ZM265.512 32.6118C264.472 32.6118 263.619 31.7585 263.619 30.7185C263.619 29.6785 264.472 28.8252 265.512 28.8252C266.552 28.8252 267.406 29.6785 267.406 30.7185C267.406 31.7585 266.552 32.6118 265.512 32.6118Z" fill="#B7BFBF"/>
<path fill-rule="evenodd" clip-rule="evenodd" d="M275.113 27.1318C273.126 27.1318 271.526 28.7318 271.526 30.7185C271.526 32.7052 273.126 34.3052 275.113 34.3052C277.1 34.3052 278.7 32.7052 278.7 30.7185C278.7 28.7318 277.1 27.1318 275.113 27.1318ZM275.113 32.6118C274.073 32.6118 273.22 31.7585 273.22 30.7185C273.22 29.6785 274.073 28.8252 275.113 28.8252C276.153 28.8252 277.006 29.6785 277.006 30.7185C277.006 31.7585 276.153 32.6118 275.113 32.6118Z" fill="#B7BFBF"/>
<path fill-rule="evenodd" clip-rule="evenodd" d="M284.713 27.1318C282.726 27.1318 281.126 28.7318 281.126 30.7185C281.126 32.7052 282.726 34.3052 284.713 34.3052C286.699 34.3052 288.299 32.7052 288.299 30.7185C288.299 28.7318 286.699 27.1318 284.713 27.1318ZM284.713 32.6118C283.673 32.6118 282.819 31.7585 282.819 30.7185C282.819 29.6785 283.673 28.8252 284.713 28.8252C285.753 28.8252 286.606 29.6785 286.606 30.7185C286.606 31.7585 285.753 32.6118 284.713 32.6118Z" fill="#B7BFBF"/>
<path fill-rule="evenodd" clip-rule="evenodd" d="M294.313 27.1318C292.326 27.1318 290.727 28.7318 290.727 30.7185C290.727 32.7052 292.326 34.3052 294.313 34.3052C296.3 34.3052 297.9 32.7052 297.9 30.7185C297.9 28.7318 296.3 27.1318 294.313 27.1318ZM294.313 32.6118C293.273 32.6118 292.42 31.7585 292.42 30.7185C292.42 29.6785 293.273 28.8252 294.313 28.8252C295.353 28.8252 296.207 29.6785 296.207 30.7185C296.207 31.7585 295.353 32.6118 294.313 32.6118Z" fill="#B7BFBF"/>
<path d="M240.046 70.1367H232.486V77.6967H240.046V70.1367Z" fill="#B7BFBF"/>
<path d="M252.521 70.1367H244.961V77.6967H252.521V70.1367Z" fill="#B7BFBF"/>
<path d="M264.996 70.1367H257.436V77.6967H264.996V70.1367Z" fill="#B7BFBF"/>
<path d="M277.471 70.1367H269.911V77.6967H277.471V70.1367Z" fill="#B7BFBF"/>
<path d="M289.946 70.1367H282.386V77.6967H289.946V70.1367Z" fill="#B7BFBF"/>
<path d="M302.421 70.1367H294.861V77.6967H302.421V70.1367Z" fill="#B7BFBF"/>
<path d="M314.896 70.1367H307.336V77.6967H314.896V70.1367Z" fill="#B7BFBF"/>
<path d="M327.371 70.1367H319.811V77.6967H327.371V70.1367Z" fill="#B7BFBF"/>
<path d="M355.028 62.2292H339.634V85.6026H355.028V62.2292Z" fill="#929D9E"/>
<path d="M220.192 62.2292H204.798V85.6026H220.192V62.2292Z" fill="#929D9E"/>
<path d="M324.805 33.4888H313.185V45.1092H324.805V33.4888Z" fill="black"/>
</g>
<g filter="url(#filter1_d_2_3)">
<path d="M580.393 26H459.446C450.046 26 442.433 33.6134 442.433 43V104.84C442.433 114.227 450.046 121.84 459.446 121.84H580.393C589.779 121.84 597.393 114.227 597.393 104.84V43C597.393 33.6134 589.779 26 580.393 26ZM534.313 27.1334C536.299 27.1334 537.899 28.7333 537.899 30.72C537.899 32.7068 536.299 34.3067 534.313 34.3067C532.326 34.3067 530.726 32.7067 530.726 30.72C530.726 28.7334 532.326 27.1334 534.313 27.1334ZM524.713 27.1334C526.699 27.1334 528.299 28.7333 528.299 30.72C528.299 32.7068 526.699 34.3067 524.713 34.3067C522.726 34.3067 521.126 32.7067 521.126 30.72C521.126 28.7334 522.726 27.1334 524.713 27.1334ZM515.113 27.1334C517.099 27.1334 518.699 28.7333 518.699 30.72C518.699 32.7068 517.099 34.3067 515.113 34.3067C513.126 34.3067 511.526 32.7067 511.526 30.72C511.526 28.7334 513.126 27.1334 515.113 27.1334ZM505.513 27.1334C507.499 27.1334 509.099 28.7333 509.099 30.72C509.099 32.7068 507.499 34.3067 505.513 34.3067C503.526 34.3067 501.926 32.7067 501.926 30.72C501.926 28.7334 503.526 27.1334 505.513 27.1334ZM459.446 114.733C453.593 114.733 448.859 110 448.859 104.16C448.859 98.3067 453.593 93.5733 459.446 93.5733C465.286 93.5733 470.019 98.3067 470.019 104.16C470.019 110 465.286 114.733 459.446 114.733ZM459.446 54.2667C453.593 54.2667 448.859 49.52 448.859 43.68C448.859 37.84 453.593 33.0933 459.446 33.0933C465.286 33.0933 470.019 37.84 470.019 43.68C470.019 49.52 465.286 54.2667 459.446 54.2667ZM476.713 121.08C474.526 121.08 472.739 119.307 472.739 117.12C472.739 114.92 474.526 113.147 476.713 113.147C478.899 113.147 480.686 114.92 480.686 117.12C480.686 119.307 478.899 121.08 476.713 121.08ZM486.313 121.08C484.126 121.08 482.339 119.307 482.339 117.12C482.339 114.92 484.126 113.147 486.313 113.147C488.499 113.147 490.286 114.92 490.286 117.12C490.286 119.307 488.499 121.08 486.313 121.08ZM495.913 121.08C493.726 121.08 491.939 119.307 491.939 117.12C491.939 114.92 493.726 113.147 495.913 113.147C498.099 113.147 499.886 114.92 499.886 117.12C499.886 119.307 498.099 121.08 495.913 121.08ZM505.513 121.08C503.326 121.08 501.539 119.307 501.539 117.12C501.539 114.92 503.326 113.147 505.513 113.147C507.699 113.147 509.486 114.92 509.486 117.12C509.486 119.307 507.699 121.08 505.513 121.08ZM515.113 121.08C512.926 121.08 511.139 119.307 511.139 117.12C511.139 114.92 512.926 113.147 515.113 113.147C517.299 113.147 519.086 114.92 519.086 117.12C519.086 119.307 517.299 121.08 515.113 121.08ZM524.713 121.08C522.526 121.08 520.739 119.307 520.739 117.12C520.739 114.92 522.526 113.147 524.713 113.147C526.899 113.147 528.686 114.92 528.686 117.12C528.686 119.307 526.899 121.08 524.713 121.08ZM534.313 121.08C532.126 121.08 530.339 119.307 530.339 117.12C530.339 114.92 532.126 113.147 534.313 113.147C536.499 113.147 538.286 114.92 538.286 117.12C538.286 119.307 536.499 121.08 534.313 121.08ZM543.913 121.08C541.726 121.08 539.939 119.307 539.939 117.12C539.939 114.92 541.726 113.147 543.913 113.147C546.099 113.147 547.886 114.92 547.886 117.12C547.886 119.307 546.099 121.08 543.913 121.08ZM553.513 121.08C551.326 121.08 549.539 119.307 549.539 117.12C549.539 114.92 551.326 113.147 553.513 113.147C555.699 113.147 557.486 114.92 557.486 117.12C557.486 119.307 555.699 121.08 553.513 121.08ZM563.113 121.08C560.926 121.08 559.139 119.307 559.139 117.12C559.139 114.92 560.926 113.147 563.113 113.147C565.299 113.147 567.086 114.92 567.086 117.12C567.086 119.307 565.299 121.08 563.113 121.08ZM580.393 114.733C574.539 114.733 569.806 110 569.806 104.16C569.806 98.3067 574.539 93.5733 580.393 93.5733C586.233 93.5733 590.966 98.3067 590.966 104.16C590.966 110 586.233 114.733 580.393 114.733ZM580.393 54.2667C574.539 54.2667 569.806 49.52 569.806 43.68C569.806 37.84 574.539 33.0933 580.393 33.0933C586.233 33.0933 590.966 37.84 590.966 43.68C590.966 49.52 586.233 54.2667 580.393 54.2667Z" fill="#057582"/>
<path d="M459.937 88.1992H453.15V91.2254H459.937V88.1992Z" fill="#929D9E"/>
<path d="M456.544 91.8893C457.746 91.8893 458.721 90.9147 458.721 89.7124C458.721 88.5101 457.746 87.5354 456.544 87.5354C455.342 87.5354 454.367 88.5101 454.367 89.7124C454.367 90.9147 455.342 91.8893 456.544 91.8893Z" fill="#EBAA01"/>
<path fill-rule="evenodd" clip-rule="evenodd" d="M563.113 113.147C560.926 113.147 559.14 114.92 559.14 117.12C559.14 119.307 560.926 121.08 563.113 121.08C565.3 121.08 567.086 119.307 567.086 117.12C567.086 114.92 565.3 113.147 563.113 113.147ZM563.113 119C562.073 119 561.22 118.16 561.22 117.12C561.22 116.067 562.073 115.227 563.113 115.227C564.153 115.227 565.006 116.067 565.006 117.12C565.006 118.16 564.153 119 563.113 119Z" fill="#B7BFBF"/>
<path fill-rule="evenodd" clip-rule="evenodd" d="M553.512 113.147C551.326 113.147 549.539 114.92 549.539 117.12C549.539 119.307 551.326 121.08 553.512 121.08C555.699 121.08 557.486 119.307 557.486 117.12C557.486 114.92 555.699 113.147 553.512 113.147ZM553.512 119C552.472 119 551.619 118.16 551.619 117.12C551.619 116.067 552.472 115.227 553.512 115.227C554.552 115.227 555.406 116.067 555.406 117.12C555.406 118.16 554.552 119 553.512 119Z" fill="#B7BFBF"/>
<path fill-rule="evenodd" clip-rule="evenodd" d="M543.913 113.147C541.726 113.147 539.939 114.92 539.939 117.12C539.939 119.307 541.726 121.08 543.913 121.08C546.099 121.08 547.886 119.307 547.886 117.12C547.886 114.92 546.099 113.147 543.913 113.147ZM543.913 119C542.873 119 542.019 118.16 542.019 117.12C542.019 116.067 542.873 115.227 543.913 115.227C544.953 115.227 545.806 116.067 545.806 117.12C545.806 118.16 544.953 119 543.913 119Z" fill="#B7BFBF"/>
<path fill-rule="evenodd" clip-rule="evenodd" d="M534.313 113.147C532.127 113.147 530.34 114.92 530.34 117.12C530.34 119.307 532.127 121.08 534.313 121.08C536.5 121.08 538.287 119.307 538.287 117.12C538.287 114.92 536.5 113.147 534.313 113.147ZM534.313 119C533.273 119 532.42 118.16 532.42 117.12C532.42 116.067 533.273 115.227 534.313 115.227C535.353 115.227 536.207 116.067 536.207 117.12C536.207 118.16 535.353 119 534.313 119Z" fill="#B7BFBF"/>
<path fill-rule="evenodd" clip-rule="evenodd" d="M524.713 113.147C522.526 113.147 520.739 114.92 520.739 117.12C520.739 119.307 522.526 121.08 524.713 121.08C526.899 121.08 528.686 119.307 528.686 117.12C528.686 114.92 526.899 113.147 524.713 113.147ZM524.713 119C523.673 119 522.819 118.16 522.819 117.12C522.819 116.067 523.673 115.227 524.713 115.227C525.753 115.227 526.606 116.067 526.606 117.12C526.606 118.16 525.753 119 524.713 119Z" fill="#B7BFBF"/>
<path fill-rule="evenodd" clip-rule="evenodd" d="M476.713 113.147C474.526 113.147 472.739 114.92 472.739 117.12C472.739 119.307 474.526 121.08 476.713 121.08C478.899 121.08 480.686 119.307 480.686 117.12C480.686 114.92 478.899 113.147 476.713 113.147ZM476.713 119C475.673 119 474.819 118.16 474.819 117.12C474.819 116.067 475.673 115.227 476.713 115.227C477.753 115.227 478.606 116.067 478.606 117.12C478.606 118.16 477.753 119 476.713 119Z" fill="#B7BFBF"/>
<path fill-rule="evenodd" clip-rule="evenodd" d="M486.313 113.147C484.127 113.147 482.34 114.92 482.34 117.12C482.34 119.307 484.127 121.08 486.313 121.08C488.5 121.08 490.287 119.307 490.287 117.12C490.287 114.92 488.5 113.147 486.313 113.147ZM486.313 119C485.273 119 484.42 118.16 484.42 117.12C484.42 116.067 485.273 115.227 486.313 115.227C487.353 115.227 488.207 116.067 488.207 117.12C488.207 118.16 487.353 119 486.313 119Z" fill="#B7BFBF"/>
<path fill-rule="evenodd" clip-rule="evenodd" d="M495.913 113.147C493.726 113.147 491.939 114.92 491.939 117.12C491.939 119.307 493.726 121.08 495.913 121.08C498.099 121.08 499.886 119.307 499.886 117.12C499.886 114.92 498.099 113.147 495.913 113.147ZM495.913 119C494.873 119 494.019 118.16 494.019 117.12C494.019 116.067 494.873 115.227 495.913 115.227C496.953 115.227 497.806 116.067 497.806 117.12C497.806 118.16 496.953 119 495.913 119Z" fill="#B7BFBF"/>
<path fill-rule="evenodd" clip-rule="evenodd" d="M505.512 113.147C503.326 113.147 501.539 114.92 501.539 117.12C501.539 119.307 503.326 121.08 505.512 121.08C507.699 121.08 509.486 119.307 509.486 117.12C509.486 114.92 507.699 113.147 505.512 113.147ZM505.512 119C504.472 119 503.619 118.16 503.619 117.12C503.619 116.067 504.472 115.227 505.512 115.227C506.552 115.227 507.406 116.067 507.406 117.12C507.406 118.16 506.552 119 505.512 119Z" fill="#B7BFBF"/>
<path fill-rule="evenodd" clip-rule="evenodd" d="M515.113 113.147C512.926 113.147 511.14 114.92 511.14 117.12C511.14 119.307 512.926 121.08 515.113 121.08C517.3 121.08 519.086 119.307 519.086 117.12C519.086 114.92 517.3 113.147 515.113 113.147ZM515.113 119C514.073 119 513.22 118.16 513.22 117.12C513.22 116.067 514.073 115.227 515.113 115.227C516.153 115.227 517.006 116.067 517.006 117.12C517.006 118.16 516.153 119 515.113 119Z" fill="#B7BFBF"/>
<path fill-rule="evenodd" clip-rule="evenodd" d="M459.446 93.5719C453.593 93.5719 448.859 98.3052 448.859 104.159C448.859 109.998 453.593 114.732 459.446 114.732C465.286 114.732 470.019 109.998 470.019 104.159C470.019 98.3052 465.286 93.5719 459.446 93.5719ZM459.446 110.198C456.099 110.198 453.393 107.492 453.393 104.159C453.393 100.812 456.099 98.1051 459.446 98.1051C462.779 98.1051 465.486 100.812 465.486 104.159C465.486 107.492 462.779 110.198 459.446 110.198Z" fill="#B7BFBF"/>
<path fill-rule="evenodd" clip-rule="evenodd" d="M459.446 33.0918C453.593 33.0918 448.859 37.8385 448.859 43.6785C448.859 49.5185 453.593 54.2651 459.446 54.2651C465.286 54.2651 470.019 49.5185 470.019 43.6785C470.019 37.8385 465.286 33.0918 459.446 33.0918ZM459.446 49.7319C456.099 49.7319 453.393 47.0251 453.393 43.6785C453.393 40.3451 456.099 37.6385 459.446 37.6385C462.779 37.6385 465.486 40.3451 465.486 43.6785C465.486 47.0251 462.779 49.7319 459.446 49.7319Z" fill="#B7BFBF"/>
<path fill-rule="evenodd" clip-rule="evenodd" d="M580.392 33.0918C574.539 33.0918 569.806 37.8385 569.806 43.6785C569.806 49.5185 574.539 54.2651 580.392 54.2651C586.232 54.2651 590.966 49.5185 590.966 43.6785C590.966 37.8385 586.232 33.0918 580.392 33.0918ZM580.392 49.7319C577.046 49.7319 574.339 47.0251 574.339 43.6785C574.339 40.3451 577.046 37.6385 580.392 37.6385C583.726 37.6385 586.432 40.3451 586.432 43.6785C586.432 47.0251 583.726 49.7319 580.392 49.7319Z" fill="#B7BFBF"/>
<path fill-rule="evenodd" clip-rule="evenodd" d="M580.392 93.5718C574.539 93.5718 569.806 98.3051 569.806 104.158C569.806 109.998 574.539 114.732 580.392 114.732C586.232 114.732 590.966 109.998 590.966 104.158C590.966 98.3051 586.232 93.5718 580.392 93.5718ZM580.392 110.198C577.046 110.198 574.339 107.492 574.339 104.158C574.339 100.812 577.046 98.1051 580.392 98.1051C583.726 98.1051 586.432 100.812 586.432 104.158C586.432 107.492 583.726 110.198 580.392 110.198Z" fill="#B7BFBF"/>
<path fill-rule="evenodd" clip-rule="evenodd" d="M505.512 27.1318C503.526 27.1318 501.926 28.7318 501.926 30.7185C501.926 32.7052 503.526 34.3052 505.512 34.3052C507.499 34.3052 509.099 32.7052 509.099 30.7185C509.099 28.7318 507.499 27.1318 505.512 27.1318ZM505.512 32.6118C504.472 32.6118 503.619 31.7585 503.619 30.7185C503.619 29.6785 504.472 28.8252 505.512 28.8252C506.552 28.8252 507.406 29.6785 507.406 30.7185C507.406 31.7585 506.552 32.6118 505.512 32.6118Z" fill="#B7BFBF"/>
<path fill-rule="evenodd" clip-rule="evenodd" d="M515.113 27.1318C513.126 27.1318 511.526 28.7318 511.526 30.7185C511.526 32.7052 513.126 34.3052 515.113 34.3052C517.1 34.3052 518.7 32.7052 518.7 30.7185C518.7 28.7318 517.1 27.1318 515.113 27.1318ZM515.113 32.6118C514.073 32.6118 513.22 31.7585 513.22 30.7185C513.22 29.6785 514.073 28.8252 515.113 28.8252C516.153 28.8252 517.006 29.6785 517.006 30.7185C517.006 31.7585 516.153 32.6118 515.113 32.6118Z" fill="#B7BFBF"/>
<path fill-rule="evenodd" clip-rule="evenodd" d="M524.713 27.1318C522.726 27.1318 521.126 28.7318 521.126 30.7185C521.126 32.7052 522.726 34.3052 524.713 34.3052C526.699 34.3052 528.299 32.7052 528.299 30.7185C528.299 28.7318 526.699 27.1318 524.713 27.1318ZM524.713 32.6118C523.673 32.6118 522.819 31.7585 522.819 30.7185C522.819 29.6785 523.673 28.8252 524.713 28.8252C525.753 28.8252 526.606 29.6785 526.606 30.7185C526.606 31.7585 525.753 32.6118 524.713 32.6118Z" fill="#B7BFBF"/>
<path fill-rule="evenodd" clip-rule="evenodd" d="M534.313 27.1318C532.326 27.1318 530.727 28.7318 530.727 30.7185C530.727 32.7052 532.326 34.3052 534.313 34.3052C536.3 34.3052 537.9 32.7052 537.9 30.7185C537.9 28.7318 536.3 27.1318 534.313 27.1318ZM534.313 32.6118C533.273 32.6118 532.42 31.7585 532.42 30.7185C532.42 29.6785 533.273 28.8252 534.313 28.8252C535.353 28.8252 536.207 29.6785 536.207 30.7185C536.207 31.7585 535.353 32.6118 534.313 32.6118Z" fill="#B7BFBF"/>
<path d="M550.012 73.9212C550.012 75.5326 549.879 77.1144 549.628 78.6666C549.539 79.1988 549.45 79.7309 549.317 80.2632C548.77 80.6032 548.268 81.0023 547.824 81.4458C545.976 83.2345 544.927 85.7329 544.971 88.2904C544.986 88.9261 545.06 89.5765 545.193 90.2122C544.897 90.6704 544.602 91.1139 544.276 91.5574C542.414 94.1444 540.152 96.4211 537.565 98.269C537.121 98.5942 536.678 98.9047 536.22 99.2003C535.599 99.0525 534.963 98.9786 534.327 98.9638C531.755 98.9195 529.242 99.9543 527.438 101.817C526.995 102.275 526.596 102.778 526.256 103.325C525.724 103.458 525.191 103.547 524.659 103.635C523.107 103.887 521.525 104.005 519.914 104.005C518.302 104.005 516.721 103.887 515.168 103.635C514.636 103.547 514.104 103.458 513.572 103.325C513.232 102.778 512.833 102.275 512.389 101.817C510.586 99.9543 508.073 98.9195 505.5 98.9638C504.865 98.9786 504.229 99.0524 503.608 99.2003C503.15 98.9047 502.706 98.5942 502.263 98.269C499.676 96.4211 497.414 94.1444 495.551 91.5574C495.226 91.1139 494.93 90.6705 494.635 90.2122C494.783 89.5765 494.856 88.9557 494.871 88.3199V88.1721C494.871 85.6442 493.822 83.205 492.003 81.431C491.545 81.0023 491.042 80.6032 490.51 80.2632C490.377 79.7309 490.288 79.1987 490.2 78.6666C489.948 77.1144 489.815 75.5326 489.815 73.9212C489.815 72.3098 489.948 70.728 490.2 69.1758C490.288 68.6436 490.377 68.1114 490.51 67.5792C491.042 67.2392 491.545 66.8549 491.988 66.4261C493.866 64.6374 494.916 62.0947 494.871 59.4928C494.856 58.8572 494.783 58.2511 494.635 57.6154C494.93 57.1572 495.226 56.7137 495.551 56.2701C497.414 53.6831 499.676 51.4065 502.263 49.5586C502.706 49.2333 503.15 48.9229 503.608 48.6273C504.229 48.7751 504.85 48.849 505.485 48.8638C508.073 48.9081 510.615 47.8585 512.419 45.9811C512.847 45.5376 513.232 45.035 513.572 44.5028C514.104 44.3697 514.636 44.281 515.168 44.1923C516.721 43.941 518.302 43.8228 519.914 43.8228C521.525 43.8228 523.107 43.941 524.659 44.1923C525.191 44.281 525.724 44.3697 526.256 44.5028C526.596 45.035 526.98 45.5376 527.409 45.9811C529.212 47.8585 531.755 48.9081 534.342 48.8638C534.978 48.849 535.599 48.7751 536.22 48.6273C536.678 48.9229 537.121 49.2333 537.565 49.5586C540.152 51.4065 542.414 53.6831 544.276 56.2701C544.602 56.7137 544.897 57.1572 545.193 57.6154C545.045 58.2511 544.971 58.8572 544.956 59.4928C544.912 62.0947 545.962 64.6374 547.839 66.4261C548.283 66.8549 548.785 67.2393 549.317 67.5792C549.45 68.1114 549.539 68.6436 549.628 69.1758C549.879 70.728 550.012 72.3099 550.012 73.9212Z" fill="#ECF1F1"/>
<path d="M521.126 44.8635H518.702V73.9374H521.126V44.8635Z" fill="black"/>
<path d="M595.028 62.2292H579.634V85.6026H595.028V62.2292Z" fill="#929D9E"/>
<path d="M460.192 62.2292H444.798V85.6026H460.192V62.2292Z" fill="#929D9E"/>
<path d="M564.805 33.4888H553.185V45.1092H564.805V33.4888Z" fill="black"/>
</g>
<defs>
<filter id="filter0_d_2_3" x="192.433" y="20" width="174.96" height="115.84" filterUnits="userSpaceOnUse" color-interpolation-filters="sRGB">
<feFlood flood-opacity="0" result="BackgroundImageFix"/>
<feColorMatrix in="SourceAlpha" type="matrix" values="0 0 0 0 0 0 0 0 0 0 0 0 0 0 0 0 0 0 127 0" result="hardAlpha"/>
<feOffset dy="4"/>
<feGaussianBlur stdDeviation="5"/>
<feComposite in2="hardAlpha" operator="out"/>
<feColorMatrix type="matrix" values="0 0 0 0 0 0 0 0 0 0 0 0 0 0 0 0 0 0 0.25 0"/>
<feBlend mode="normal" in2="BackgroundImageFix" result="effect1_dropShadow_2_3"/>
<feBlend mode="normal" in="SourceGraphic" in2="effect1_dropShadow_2_3" result="shape"/>
</filter>
<filter id="filter1_d_2_3" x="432.433" y="20" width="174.96" height="115.84" filterUnits="userSpaceOnUse" color-interpolation-filters="sRGB">
<feFlood flood-opacity="0" result="BackgroundImageFix"/>
<feColorMatrix in="SourceAlpha" type="matrix" values="0 0 0 0 0 0 0 0 0 0 0 0 0 0 0 0 0 0 127 0" result="hardAlpha"/>
<feOffset dy="4"/>
<feGaussianBlur stdDeviation="5"/>
<feComposite in2="hardAlpha" operator="out"/>
<feColorMatrix type="matrix" values="0 0 0 0 0 0 0 0 0 0 0 0 0 0 0 0 0 0 0.25 0"/>
<feBlend mode="normal" in2="BackgroundImageFix" result="effect1_dropShadow_2_3"/>
<feBlend mode="normal" in="SourceGraphic" in2="effect1_dropShadow_2_3" result="shape"/>
</filter>
</defs>
</svg>
