<?xml version="1.0" encoding="UTF-8"?>
<svg xmlns="http://www.w3.org/2000/svg" version="1.1" viewBox="0 0 800 148">
  <defs>
    <style>
      .cls-1 {
        fill: #0072b2;
      }

      .cls-1, .cls-2, .cls-3, .cls-4, .cls-5 {
        fill-rule: evenodd;
      }

      .cls-6 {
        fill: #ebaa01;
      }

      .cls-7, .cls-5 {
        fill: #b7bfbf;
      }

      .cls-8 {
        fill: #e6e6e6;
        opacity: .2;
      }

      .cls-9 {
        fill: #929d9e;
      }

      .cls-3 {
        fill: #f0e442;
      }

      .cls-10 {
        fill: #ecf1f1;
      }

      .cls-4 {
        fill: #c11f09;
      }

      .cls-11 {
        fill: #057582;
      }
    </style>
  </defs>
  <!-- Generator: Adobe Illustrator 28.7.1, SVG Export Plug-In . SVG Version: 1.2.0 Build 142)  -->
  <g>
    <g id="Layer_1">
      <rect class="cls-8" y="0" width="800" height="148" rx="10" ry="10"/>
      <path class="cls-2" d="M260.4,67.7h323.5v-3.5h-323.5v3.5Z"/>
      <path class="cls-4" d="M260.4,72.9h323.5v-3.5h-323.5v3.5Z"/>
      <path class="cls-1" d="M260.4,78.1h323.5s0-3.5,0-3.5h-323.5v3.5Z"/>
      <path class="cls-3" d="M260.4,83.3h323.5v-3.5h-323.5s0,3.5,0,3.5Z"/>
      <path class="cls-3" d="M592.6,83.3c28.3,0,51.3-23,51.3-51.3V0h-3.5s0,31.9,0,31.9c0,26.4-21.4,47.8-47.8,47.8h-112.2v3.5h112.2Z"/>
      <path class="cls-1" d="M592.6,78.1c28.3,0,51.3-23,51.3-51.3V0h-3.5s0,26.8,0,26.8c0,26.4-21.4,47.8-47.8,47.8h-112.2v3.5h112.2Z"/>
      <path class="cls-4" d="M592.6,72.9c28.4,0,51.3-23,51.3-51.3V0h-3.5s0,21.6,0,21.6c0,26.4-21.4,47.8-47.8,47.8h-112.1v3.5h112.1Z"/>
      <path class="cls-2" d="M592.6,67.7c28.3,0,51.3-23,51.3-51.3V0h-3.5s0,16.4,0,16.4c0,26.4-21.4,47.8-47.8,47.8h-112.1v3.5h112.2Z"/>
      <path class="cls-3" d="M207,64.3c-28.4,0-51.3,23-51.3,51.3v31.9h3.5v-31.9c0-26.4,21.4-47.8,47.8-47.8h112.1v-3.5h-112.1Z"/>
      <path class="cls-1" d="M207,69.4c-28.3,0-51.3,23-51.3,51.3v26.8h3.5v-26.8c0-26.4,21.4-47.8,47.8-47.8h112.1v-3.5h-112.1Z"/>
      <path class="cls-4" d="M207,74.6c-28.4,0-51.3,23-51.3,51.3v21.6h3.5v-21.6c0-26.4,21.4-47.8,47.8-47.8h112.1v-3.5h-112.1Z"/>
      <path class="cls-2" d="M207,79.8c-28.3,0-51.3,23-51.3,51.3v16.4h3.5v-16.4c0-26.4,21.4-47.8,47.8-47.8h112.1v-3.5h-112.1Z"/>
      <g>
        <path class="cls-11" d="M340.4,26h-120.9c-9.4,0-17,7.6-17,17v61.8c0,9.4,7.6,17,17,17h120.9c9.4,0,17-7.6,17-17v-61.8c0-9.4-7.6-17-17-17ZM294.3,27.1c2,0,3.6,1.6,3.6,3.6s-1.6,3.6-3.6,3.6-3.6-1.6-3.6-3.6,1.6-3.6,3.6-3.6ZM284.7,27.1c2,0,3.6,1.6,3.6,3.6s-1.6,3.6-3.6,3.6-3.6-1.6-3.6-3.6,1.6-3.6,3.6-3.6ZM275.1,27.1c2,0,3.6,1.6,3.6,3.6s-1.6,3.6-3.6,3.6-3.6-1.6-3.6-3.6,1.6-3.6,3.6-3.6ZM265.5,27.1c2,0,3.6,1.6,3.6,3.6s-1.6,3.6-3.6,3.6-3.6-1.6-3.6-3.6,1.6-3.6,3.6-3.6ZM219.4,114.7c-5.9,0-10.6-4.7-10.6-10.6s4.7-10.6,10.6-10.6,10.6,4.7,10.6,10.6-4.7,10.6-10.6,10.6ZM219.4,54.3c-5.9,0-10.6-4.7-10.6-10.6s4.7-10.6,10.6-10.6,10.6,4.7,10.6,10.6-4.7,10.6-10.6,10.6ZM236.7,121.1c-2.2,0-4-1.8-4-4s1.8-4,4-4,4,1.8,4,4-1.8,4-4,4ZM246.3,121.1c-2.2,0-4-1.8-4-4s1.8-4,4-4,4,1.8,4,4-1.8,4-4,4ZM255.9,121.1c-2.2,0-4-1.8-4-4s1.8-4,4-4,4,1.8,4,4-1.8,4-4,4ZM265.5,121.1c-2.2,0-4-1.8-4-4s1.8-4,4-4,4,1.8,4,4-1.8,4-4,4ZM275.1,121.1c-2.2,0-4-1.8-4-4s1.8-4,4-4,4,1.8,4,4-1.8,4-4,4ZM284.7,121.1c-2.2,0-4-1.8-4-4s1.8-4,4-4,4,1.8,4,4-1.8,4-4,4ZM294.3,121.1c-2.2,0-4-1.8-4-4s1.8-4,4-4,4,1.8,4,4-1.8,4-4,4ZM303.9,121.1c-2.2,0-4-1.8-4-4s1.8-4,4-4,4,1.8,4,4-1.8,4-4,4ZM313.5,121.1c-2.2,0-4-1.8-4-4s1.8-4,4-4,4,1.8,4,4-1.8,4-4,4ZM323.1,121.1c-2.2,0-4-1.8-4-4s1.8-4,4-4,4,1.8,4,4-1.8,4-4,4ZM340.4,114.7c-5.9,0-10.6-4.7-10.6-10.6s4.7-10.6,10.6-10.6,10.6,4.7,10.6,10.6-4.7,10.6-10.6,10.6ZM340.4,54.3c-5.9,0-10.6-4.7-10.6-10.6s4.7-10.6,10.6-10.6,10.6,4.7,10.6,10.6-4.7,10.6-10.6,10.6Z"/>
        <path class="cls-9" d="M219.9,88.2h-6.8v3h6.8v-3Z"/>
        <path class="cls-6" d="M216.5,91.9c1.2,0,2.2-1,2.2-2.2s-1-2.2-2.2-2.2-2.2,1-2.2,2.2,1,2.2,2.2,2.2Z"/>
        <path class="cls-5" d="M323.1,113.1c-2.2,0-4,1.8-4,4s1.8,4,4,4,4-1.8,4-4-1.8-4-4-4ZM323.1,119c-1,0-1.9-.8-1.9-1.9s.9-1.9,1.9-1.9,1.9.8,1.9,1.9-.9,1.9-1.9,1.9Z"/>
        <path class="cls-5" d="M313.5,113.1c-2.2,0-4,1.8-4,4s1.8,4,4,4,4-1.8,4-4-1.8-4-4-4ZM313.5,119c-1,0-1.9-.8-1.9-1.9s.9-1.9,1.9-1.9,1.9.8,1.9,1.9-.9,1.9-1.9,1.9Z"/>
        <path class="cls-5" d="M303.9,113.1c-2.2,0-4,1.8-4,4s1.8,4,4,4,4-1.8,4-4-1.8-4-4-4ZM303.9,119c-1,0-1.9-.8-1.9-1.9s.9-1.9,1.9-1.9,1.9.8,1.9,1.9-.9,1.9-1.9,1.9Z"/>
        <path class="cls-5" d="M294.3,113.1c-2.2,0-4,1.8-4,4s1.8,4,4,4,4-1.8,4-4-1.8-4-4-4ZM294.3,119c-1,0-1.9-.8-1.9-1.9s.9-1.9,1.9-1.9,1.9.8,1.9,1.9-.9,1.9-1.9,1.9Z"/>
        <path class="cls-5" d="M284.7,113.1c-2.2,0-4,1.8-4,4s1.8,4,4,4,4-1.8,4-4-1.8-4-4-4ZM284.7,119c-1,0-1.9-.8-1.9-1.9s.9-1.9,1.9-1.9,1.9.8,1.9,1.9-.9,1.9-1.9,1.9Z"/>
        <path class="cls-5" d="M236.7,113.1c-2.2,0-4,1.8-4,4s1.8,4,4,4,4-1.8,4-4-1.8-4-4-4ZM236.7,119c-1,0-1.9-.8-1.9-1.9s.9-1.9,1.9-1.9,1.9.8,1.9,1.9-.9,1.9-1.9,1.9Z"/>
        <path class="cls-5" d="M246.3,113.1c-2.2,0-4,1.8-4,4s1.8,4,4,4,4-1.8,4-4-1.8-4-4-4ZM246.3,119c-1,0-1.9-.8-1.9-1.9s.9-1.9,1.9-1.9,1.9.8,1.9,1.9-.9,1.9-1.9,1.9Z"/>
        <path class="cls-5" d="M255.9,113.1c-2.2,0-4,1.8-4,4s1.8,4,4,4,4-1.8,4-4-1.8-4-4-4ZM255.9,119c-1,0-1.9-.8-1.9-1.9s.9-1.9,1.9-1.9,1.9.8,1.9,1.9-.9,1.9-1.9,1.9Z"/>
        <path class="cls-5" d="M265.5,113.1c-2.2,0-4,1.8-4,4s1.8,4,4,4,4-1.8,4-4-1.8-4-4-4ZM265.5,119c-1,0-1.9-.8-1.9-1.9s.9-1.9,1.9-1.9,1.9.8,1.9,1.9-.9,1.9-1.9,1.9Z"/>
        <path class="cls-5" d="M275.1,113.1c-2.2,0-4,1.8-4,4s1.8,4,4,4,4-1.8,4-4-1.8-4-4-4ZM275.1,119c-1,0-1.9-.8-1.9-1.9s.9-1.9,1.9-1.9,1.9.8,1.9,1.9-.9,1.9-1.9,1.9Z"/>
        <path class="cls-5" d="M219.4,93.6c-5.9,0-10.6,4.7-10.6,10.6s4.7,10.6,10.6,10.6,10.6-4.7,10.6-10.6-4.7-10.6-10.6-10.6ZM219.4,110.2c-3.3,0-6.1-2.7-6.1-6s2.7-6.1,6.1-6.1,6,2.7,6,6.1-2.7,6-6,6Z"/>
        <path class="cls-5" d="M219.4,33.1c-5.9,0-10.6,4.7-10.6,10.6s4.7,10.6,10.6,10.6,10.6-4.7,10.6-10.6-4.7-10.6-10.6-10.6ZM219.4,49.7c-3.3,0-6.1-2.7-6.1-6.1s2.7-6,6.1-6,6,2.7,6,6-2.7,6.1-6,6.1Z"/>
        <path class="cls-5" d="M340.4,33.1c-5.9,0-10.6,4.7-10.6,10.6s4.7,10.6,10.6,10.6,10.6-4.7,10.6-10.6-4.7-10.6-10.6-10.6ZM340.4,49.7c-3.3,0-6.1-2.7-6.1-6.1s2.7-6,6.1-6,6,2.7,6,6-2.7,6.1-6,6.1Z"/>
        <path class="cls-5" d="M340.4,93.6c-5.9,0-10.6,4.7-10.6,10.6s4.7,10.6,10.6,10.6,10.6-4.7,10.6-10.6-4.7-10.6-10.6-10.6ZM340.4,110.2c-3.3,0-6.1-2.7-6.1-6s2.7-6.1,6.1-6.1,6,2.7,6,6.1-2.7,6-6,6Z"/>
        <path class="cls-5" d="M265.5,27.1c-2,0-3.6,1.6-3.6,3.6s1.6,3.6,3.6,3.6,3.6-1.6,3.6-3.6-1.6-3.6-3.6-3.6ZM265.5,32.6c-1,0-1.9-.9-1.9-1.9s.9-1.9,1.9-1.9,1.9.9,1.9,1.9-.9,1.9-1.9,1.9Z"/>
        <path class="cls-5" d="M275.1,27.1c-2,0-3.6,1.6-3.6,3.6s1.6,3.6,3.6,3.6,3.6-1.6,3.6-3.6-1.6-3.6-3.6-3.6ZM275.1,32.6c-1,0-1.9-.9-1.9-1.9s.9-1.9,1.9-1.9,1.9.9,1.9,1.9-.9,1.9-1.9,1.9Z"/>
        <path class="cls-5" d="M284.7,27.1c-2,0-3.6,1.6-3.6,3.6s1.6,3.6,3.6,3.6,3.6-1.6,3.6-3.6-1.6-3.6-3.6-3.6ZM284.7,32.6c-1,0-1.9-.9-1.9-1.9s.9-1.9,1.9-1.9,1.9.9,1.9,1.9-.9,1.9-1.9,1.9Z"/>
        <path class="cls-5" d="M294.3,27.1c-2,0-3.6,1.6-3.6,3.6s1.6,3.6,3.6,3.6,3.6-1.6,3.6-3.6-1.6-3.6-3.6-3.6ZM294.3,32.6c-1,0-1.9-.9-1.9-1.9s.9-1.9,1.9-1.9,1.9.9,1.9,1.9-.9,1.9-1.9,1.9Z"/>
        <path class="cls-7" d="M240,70.1h-7.6v7.6h7.6v-7.6Z"/>
        <path class="cls-7" d="M252.5,70.1h-7.6v7.6h7.6v-7.6Z"/>
        <path class="cls-7" d="M265,70.1h-7.6v7.6h7.6v-7.6Z"/>
        <path class="cls-7" d="M277.5,70.1h-7.6v7.6h7.6v-7.6Z"/>
        <path class="cls-7" d="M289.9,70.1h-7.6v7.6h7.6v-7.6Z"/>
        <path class="cls-7" d="M302.4,70.1h-7.6v7.6h7.6v-7.6Z"/>
        <path class="cls-7" d="M314.9,70.1h-7.6v7.6h7.6v-7.6Z"/>
        <path class="cls-7" d="M327.4,70.1h-7.6v7.6h7.6v-7.6Z"/>
        <path class="cls-9" d="M355,62.2h-15.4v23.4h15.4v-23.4Z"/>
        <path class="cls-9" d="M220.2,62.2h-15.4v23.4h15.4v-23.4Z"/>
        <path d="M324.8,33.5h-11.6v11.6h11.6v-11.6Z"/>
      </g>
      <g>
        <path class="cls-11" d="M580.4,26h-120.9c-9.4,0-17,7.6-17,17v61.8c0,9.4,7.6,17,17,17h120.9c9.4,0,17-7.6,17-17v-61.8c0-9.4-7.6-17-17-17ZM534.3,27.1c2,0,3.6,1.6,3.6,3.6s-1.6,3.6-3.6,3.6-3.6-1.6-3.6-3.6,1.6-3.6,3.6-3.6ZM524.7,27.1c2,0,3.6,1.6,3.6,3.6s-1.6,3.6-3.6,3.6-3.6-1.6-3.6-3.6,1.6-3.6,3.6-3.6ZM515.1,27.1c2,0,3.6,1.6,3.6,3.6s-1.6,3.6-3.6,3.6-3.6-1.6-3.6-3.6,1.6-3.6,3.6-3.6ZM505.5,27.1c2,0,3.6,1.6,3.6,3.6s-1.6,3.6-3.6,3.6-3.6-1.6-3.6-3.6,1.6-3.6,3.6-3.6ZM459.4,114.7c-5.9,0-10.6-4.7-10.6-10.6s4.7-10.6,10.6-10.6,10.6,4.7,10.6,10.6-4.7,10.6-10.6,10.6ZM459.4,54.3c-5.9,0-10.6-4.7-10.6-10.6s4.7-10.6,10.6-10.6,10.6,4.7,10.6,10.6-4.7,10.6-10.6,10.6ZM476.7,121.1c-2.2,0-4-1.8-4-4s1.8-4,4-4,4,1.8,4,4-1.8,4-4,4ZM486.3,121.1c-2.2,0-4-1.8-4-4s1.8-4,4-4,4,1.8,4,4-1.8,4-4,4ZM495.9,121.1c-2.2,0-4-1.8-4-4s1.8-4,4-4,4,1.8,4,4-1.8,4-4,4ZM505.5,121.1c-2.2,0-4-1.8-4-4s1.8-4,4-4,4,1.8,4,4-1.8,4-4,4ZM515.1,121.1c-2.2,0-4-1.8-4-4s1.8-4,4-4,4,1.8,4,4-1.8,4-4,4ZM524.7,121.1c-2.2,0-4-1.8-4-4s1.8-4,4-4,4,1.8,4,4-1.8,4-4,4ZM534.3,121.1c-2.2,0-4-1.8-4-4s1.8-4,4-4,4,1.8,4,4-1.8,4-4,4ZM543.9,121.1c-2.2,0-4-1.8-4-4s1.8-4,4-4,4,1.8,4,4-1.8,4-4,4ZM553.5,121.1c-2.2,0-4-1.8-4-4s1.8-4,4-4,4,1.8,4,4-1.8,4-4,4ZM563.1,121.1c-2.2,0-4-1.8-4-4s1.8-4,4-4,4,1.8,4,4-1.8,4-4,4ZM580.4,114.7c-5.9,0-10.6-4.7-10.6-10.6s4.7-10.6,10.6-10.6,10.6,4.7,10.6,10.6-4.7,10.6-10.6,10.6ZM580.4,54.3c-5.9,0-10.6-4.7-10.6-10.6s4.7-10.6,10.6-10.6,10.6,4.7,10.6,10.6-4.7,10.6-10.6,10.6Z"/>
        <path class="cls-9" d="M459.9,88.2h-6.8v3h6.8v-3Z"/>
        <path class="cls-6" d="M456.5,91.9c1.2,0,2.2-1,2.2-2.2s-1-2.2-2.2-2.2-2.2,1-2.2,2.2,1,2.2,2.2,2.2Z"/>
        <path class="cls-5" d="M563.1,113.1c-2.2,0-4,1.8-4,4s1.8,4,4,4,4-1.8,4-4-1.8-4-4-4ZM563.1,119c-1,0-1.9-.8-1.9-1.9s.9-1.9,1.9-1.9,1.9.8,1.9,1.9-.9,1.9-1.9,1.9Z"/>
        <path class="cls-5" d="M553.5,113.1c-2.2,0-4,1.8-4,4s1.8,4,4,4,4-1.8,4-4-1.8-4-4-4ZM553.5,119c-1,0-1.9-.8-1.9-1.9s.9-1.9,1.9-1.9,1.9.8,1.9,1.9-.9,1.9-1.9,1.9Z"/>
        <path class="cls-5" d="M543.9,113.1c-2.2,0-4,1.8-4,4s1.8,4,4,4,4-1.8,4-4-1.8-4-4-4ZM543.9,119c-1,0-1.9-.8-1.9-1.9s.9-1.9,1.9-1.9,1.9.8,1.9,1.9-.9,1.9-1.9,1.9Z"/>
        <path class="cls-5" d="M534.3,113.1c-2.2,0-4,1.8-4,4s1.8,4,4,4,4-1.8,4-4-1.8-4-4-4ZM534.3,119c-1,0-1.9-.8-1.9-1.9s.9-1.9,1.9-1.9,1.9.8,1.9,1.9-.9,1.9-1.9,1.9Z"/>
        <path class="cls-5" d="M524.7,113.1c-2.2,0-4,1.8-4,4s1.8,4,4,4,4-1.8,4-4-1.8-4-4-4ZM524.7,119c-1,0-1.9-.8-1.9-1.9s.9-1.9,1.9-1.9,1.9.8,1.9,1.9-.9,1.9-1.9,1.9Z"/>
        <path class="cls-5" d="M476.7,113.1c-2.2,0-4,1.8-4,4s1.8,4,4,4,4-1.8,4-4-1.8-4-4-4ZM476.7,119c-1,0-1.9-.8-1.9-1.9s.9-1.9,1.9-1.9,1.9.8,1.9,1.9-.9,1.9-1.9,1.9Z"/>
        <path class="cls-5" d="M486.3,113.1c-2.2,0-4,1.8-4,4s1.8,4,4,4,4-1.8,4-4-1.8-4-4-4ZM486.3,119c-1,0-1.9-.8-1.9-1.9s.9-1.9,1.9-1.9,1.9.8,1.9,1.9-.9,1.9-1.9,1.9Z"/>
        <path class="cls-5" d="M495.9,113.1c-2.2,0-4,1.8-4,4s1.8,4,4,4,4-1.8,4-4-1.8-4-4-4ZM495.9,119c-1,0-1.9-.8-1.9-1.9s.9-1.9,1.9-1.9,1.9.8,1.9,1.9-.9,1.9-1.9,1.9Z"/>
        <path class="cls-5" d="M505.5,113.1c-2.2,0-4,1.8-4,4s1.8,4,4,4,4-1.8,4-4-1.8-4-4-4ZM505.5,119c-1,0-1.9-.8-1.9-1.9s.9-1.9,1.9-1.9,1.9.8,1.9,1.9-.9,1.9-1.9,1.9Z"/>
        <path class="cls-5" d="M515.1,113.1c-2.2,0-4,1.8-4,4s1.8,4,4,4,4-1.8,4-4-1.8-4-4-4ZM515.1,119c-1,0-1.9-.8-1.9-1.9s.9-1.9,1.9-1.9,1.9.8,1.9,1.9-.9,1.9-1.9,1.9Z"/>
        <path class="cls-5" d="M459.4,93.6c-5.9,0-10.6,4.7-10.6,10.6s4.7,10.6,10.6,10.6,10.6-4.7,10.6-10.6-4.7-10.6-10.6-10.6ZM459.4,110.2c-3.3,0-6.1-2.7-6.1-6s2.7-6.1,6.1-6.1,6,2.7,6,6.1-2.7,6-6,6Z"/>
        <path class="cls-5" d="M459.4,33.1c-5.9,0-10.6,4.7-10.6,10.6s4.7,10.6,10.6,10.6,10.6-4.7,10.6-10.6-4.7-10.6-10.6-10.6ZM459.4,49.7c-3.3,0-6.1-2.7-6.1-6.1s2.7-6,6.1-6,6,2.7,6,6-2.7,6.1-6,6.1Z"/>
        <path class="cls-5" d="M580.4,33.1c-5.9,0-10.6,4.7-10.6,10.6s4.7,10.6,10.6,10.6,10.6-4.7,10.6-10.6-4.7-10.6-10.6-10.6ZM580.4,49.7c-3.3,0-6.1-2.7-6.1-6.1s2.7-6,6.1-6,6,2.7,6,6-2.7,6.1-6,6.1Z"/>
        <path class="cls-5" d="M580.4,93.6c-5.9,0-10.6,4.7-10.6,10.6s4.7,10.6,10.6,10.6,10.6-4.7,10.6-10.6-4.7-10.6-10.6-10.6ZM580.4,110.2c-3.3,0-6.1-2.7-6.1-6s2.7-6.1,6.1-6.1,6,2.7,6,6.1-2.7,6-6,6Z"/>
        <path class="cls-5" d="M505.5,27.1c-2,0-3.6,1.6-3.6,3.6s1.6,3.6,3.6,3.6,3.6-1.6,3.6-3.6-1.6-3.6-3.6-3.6ZM505.5,32.6c-1,0-1.9-.9-1.9-1.9s.9-1.9,1.9-1.9,1.9.9,1.9,1.9-.9,1.9-1.9,1.9Z"/>
        <path class="cls-5" d="M515.1,27.1c-2,0-3.6,1.6-3.6,3.6s1.6,3.6,3.6,3.6,3.6-1.6,3.6-3.6-1.6-3.6-3.6-3.6ZM515.1,32.6c-1,0-1.9-.9-1.9-1.9s.9-1.9,1.9-1.9,1.9.9,1.9,1.9-.9,1.9-1.9,1.9Z"/>
        <path class="cls-5" d="M524.7,27.1c-2,0-3.6,1.6-3.6,3.6s1.6,3.6,3.6,3.6,3.6-1.6,3.6-3.6-1.6-3.6-3.6-3.6ZM524.7,32.6c-1,0-1.9-.9-1.9-1.9s.9-1.9,1.9-1.9,1.9.9,1.9,1.9-.9,1.9-1.9,1.9Z"/>
        <path class="cls-5" d="M534.3,27.1c-2,0-3.6,1.6-3.6,3.6s1.6,3.6,3.6,3.6,3.6-1.6,3.6-3.6-1.6-3.6-3.6-3.6ZM534.3,32.6c-1,0-1.9-.9-1.9-1.9s.9-1.9,1.9-1.9,1.9.9,1.9,1.9-.9,1.9-1.9,1.9Z"/>
        <path class="cls-10" d="M550,73.9c0,1.6-.1,3.2-.4,4.7,0,.5-.2,1.1-.3,1.6-.5.3-1,.7-1.5,1.2-1.8,1.8-2.9,4.3-2.9,6.8,0,.6,0,1.3.2,1.9-.3.5-.6.9-.9,1.3-1.9,2.6-4.1,4.9-6.7,6.7-.4.3-.9.6-1.3.9-.6-.1-1.3-.2-1.9-.2-2.6,0-5.1,1-6.9,2.9-.4.5-.8,1-1.2,1.5-.5.1-1.1.2-1.6.3-1.6.3-3.1.4-4.7.4s-3.2-.1-4.7-.4c-.5,0-1.1-.2-1.6-.3-.3-.5-.7-1-1.2-1.5-1.8-1.9-4.3-2.9-6.9-2.9-.6,0-1.3,0-1.9.2-.5-.3-.9-.6-1.3-.9-2.6-1.8-4.8-4.1-6.7-6.7-.3-.4-.6-.9-.9-1.3.1-.6.2-1.3.2-1.9h0c0-2.7-1-5.1-2.9-6.9-.5-.4-1-.8-1.5-1.2-.1-.5-.2-1.1-.3-1.6-.3-1.6-.4-3.1-.4-4.7s.1-3.2.4-4.7c0-.5.2-1.1.3-1.6.5-.3,1-.7,1.5-1.2,1.9-1.8,2.9-4.3,2.9-6.9,0-.6,0-1.2-.2-1.9.3-.5.6-.9.9-1.3,1.9-2.6,4.1-4.9,6.7-6.7.4-.3.9-.6,1.3-.9.6.1,1.2.2,1.9.2,2.6,0,5.1-1,6.9-2.9.4-.4.8-.9,1.2-1.5.5-.1,1.1-.2,1.6-.3,1.6-.3,3.1-.4,4.7-.4s3.2.1,4.7.4c.5,0,1.1.2,1.6.3.3.5.7,1,1.2,1.5,1.8,1.9,4.3,2.9,6.9,2.9.6,0,1.3,0,1.9-.2.5.3.9.6,1.3.9,2.6,1.8,4.8,4.1,6.7,6.7.3.4.6.9.9,1.3-.1.6-.2,1.2-.2,1.9,0,2.6,1,5.1,2.9,6.9.4.4.9.8,1.5,1.2.1.5.2,1.1.3,1.6.3,1.6.4,3.1.4,4.7Z"/>
        <path d="M521.1,44.9h-2.4v29.1h2.4v-29.1Z"/>
        <path class="cls-9" d="M595,62.2h-15.4v23.4h15.4v-23.4Z"/>
        <path class="cls-9" d="M460.2,62.2h-15.4v23.4h15.4v-23.4Z"/>
        <path d="M564.8,33.5h-11.6v11.6h11.6v-11.6Z"/>
      </g>
    </g>
  </g>
</svg>